HIERARCHY
ROOT Hips
{
	OFFSET 0.00000 0.00000 0.00000
	CHANNELS 6 Xposition Yposition Zposition Zrotation Yrotation Xrotation 
	JOINT LHipJoint
	{
		OFFSET 0 0 0
		CHANNELS 3 Zrotation Yrotation Xrotation
		JOINT LeftHip
		{
			OFFSET 1.61024 -1.73873 0.75100
			CHANNELS 3 Zrotation Yrotation Xrotation
			JOINT LeftKnee
			{
				OFFSET 2.29819 -6.31424 0.00000
				CHANNELS 3 Zrotation Yrotation Xrotation
				JOINT LeftAnkle
				{
					OFFSET 2.76618 -7.60002 0.00000
					CHANNELS 3 Zrotation Yrotation Xrotation
					JOINT LeftToe
					{
						OFFSET 0.16838 -0.46263 2.02361
						CHANNELS 3 Zrotation Yrotation Xrotation
						End Site
						{
							OFFSET 0.00000 -0.00000 1.04662
						}
					}
				}
			}
		}
	}
	JOINT RHipJoint
	{
		OFFSET 0 0 0
		CHANNELS 3 Zrotation Yrotation Xrotation
		JOINT RightHip
		{
			OFFSET -1.46153 -1.73873 0.75100
			CHANNELS 3 Zrotation Yrotation Xrotation
			JOINT RightKnee
			{
				OFFSET -2.38373 -6.54924 0.00000
				CHANNELS 3 Zrotation Yrotation Xrotation
				JOINT RightAnkle
				{
					OFFSET -2.80314 -7.70157 0.00000
					CHANNELS 3 Zrotation Yrotation Xrotation
					JOINT RightToe
					{
						OFFSET -0.16142 -0.44349 2.02101
						CHANNELS 3 Zrotation Yrotation Xrotation
						End Site
						{
							OFFSET -0.00000 -0.00000 1.04381
						}
					}
				}
			}
		}
	}
	JOINT lowerback
	{
		OFFSET 0 0 0
		CHANNELS 3 Zrotation Yrotation Xrotation
		JOINT Chest
		{
			OFFSET -0.01629 1.66985 0.14750
			CHANNELS 3 Zrotation Yrotation Xrotation
			JOINT Chest2
			{
				OFFSET 0.02086 1.62378 0.20980
				CHANNELS 3 Zrotation Yrotation Xrotation
				JOINT lowerneck
				{
					OFFSET 0 0 0
					CHANNELS 3 Zrotation Yrotation Xrotation
					JOINT Neck
					{
						OFFSET -0.05690 1.78719 0.08702
						CHANNELS 3 Zrotation Yrotation Xrotation
						JOINT Head
						{
							OFFSET 0.16035 1.73871 -0.38470
							CHANNELS 3 Zrotation Yrotation Xrotation
							End Site
							{
								OFFSET 0.05645 1.80914 -0.14081
							}
						}
					}
				}
				JOINT LeftCollar
				{
					OFFSET 0 0 0
					CHANNELS 3 Zrotation Yrotation Xrotation
					JOINT LeftShoulder
					{
						OFFSET 2.83089 1.66494 -0.46008
CHANNELS 3 Zrotation Xrotation Yrotation
						JOINT LeftElbow
						{
OFFSET 0 -5.548930 -0.000000
CHANNELS 3 Zrotation Xrotation Yrotation
							JOINT LeftWrist
							{
OFFSET 0 -3.028980 -0.000000
CHANNELS 3 Zrotation Xrotation Yrotation
								JOINT lhand
								{
									OFFSET 0 0 0
CHANNELS 3 Zrotation Xrotation Yrotation
									JOINT LFingers
									{
OFFSET 0 -0.640950 -0.000000
CHANNELS 3 Zrotation Xrotation Yrotation
										End Site
										{
OFFSET 0 -0.516750 -0.000000
										}
									}
								}
								JOINT LThumb
								{
OFFSET 0 0.000000 0.000000
CHANNELS 3 Zrotation Xrotation Yrotation
									End Site
									{
OFFSET 0 -0.524640 0.524640
									}
								}
							}
						}
					}
				}
				JOINT RightCollar
				{
					OFFSET 0 0 0
					CHANNELS 3 Zrotation Yrotation Xrotation
					JOINT RightShoulder
					{
						OFFSET -2.84442 1.45761 -0.18088
CHANNELS 3 Zrotation Xrotation Yrotation
						JOINT RightElbow
						{
OFFSET 0 -5.351900 -0.000000
CHANNELS 3 Zrotation Xrotation Yrotation
							JOINT RightWrist
							{
OFFSET 0 -3.025310 -0.000000
CHANNELS 3 Zrotation Xrotation Yrotation
								JOINT rhand
								{
									OFFSET 0 0 0
CHANNELS 3 Zrotation Xrotation Yrotation
									JOINT RFingers
									{
OFFSET 0 -0.783890 -0.000000
CHANNELS 3 Zrotation Xrotation Yrotation
										End Site
										{
OFFSET 0 -0.631990 -0.000000
										}
									}
								}
								JOINT RThumb
								{
OFFSET 0 0.000000 0.000000
CHANNELS 3 Zrotation Xrotation Yrotation
									End Site
									{
OFFSET 0 -0.641640 0.641640
									}
								}
							}
						}
					}
				}
			}
		}
	}
}
MOTION
Frames: 7
Frame Time: 0.008333333333333333
-1.569300 17.595300 1.365100 -171.705000 68.884400 -153.241000 0.000000 0.000000 0.000000 -0.360000 -28.005300 -29.095800 1.411700 7.514900 21.250100 0.003700 6.844900 -9.852500 1.328900 -7.300000 -20.607300 0.000000 0.000000 0.000000 23.113600 5.858300 -31.226500 -2.324300 -9.511200 27.407800 -0.388500 -12.055900 -21.563900 -0.377300 3.945000 -10.921900 -0.520200 4.494500 6.789600 -0.068900 6.218300 -7.414100 -0.855300 3.106700 -11.849200 -3.746300 3.696200 -12.135300 9.755100 4.507300 11.510600 4.028000 2.796200 5.131500 -0.000000 0.000000 0.000000 24.975600 -3.971600 -53.281700 150.201300 -40.720300 108.721900 -31.014500 -23.360400 -25.127400 0.000000 0.000000 0.000000 -7.125000 0.000000 0.000000 -55.036800 47.362200 4.587900 -0.000000 0.000000 0.000000 -24.145800 -21.192900 73.489900 -142.431600 -46.561500 -103.348500 7.290600 2.106700 -20.478400 0.000000 0.000000 0.000000 7.125000 0.000000 -0.000000 22.471000 10.449800 19.639800
-1.295684 17.741145 1.216807 -173.624316 68.703420 -156.745234 0.000000 0.000000 0.000000 -2.824548 -30.153408 -21.312743 0.803985 5.718497 15.970879 -0.235181 10.391674 -10.109709 1.354036 -7.365995 -20.804297 0.000000 0.000000 0.000000 22.511594 5.774223 -24.701280 -1.567419 -7.896860 22.402897 -0.173413 -14.068324 -21.832309 -0.291329 3.468891 -9.587252 -0.153155 4.365355 3.343902 0.148830 6.178952 -7.837803 -0.528347 3.145124 -10.227614 -4.117380 3.633433 -12.748748 10.318423 4.330462 13.562728 4.342035 2.790724 5.863785 0.000000 0.000000 0.000000 25.683443 -4.254151 -53.911233 150.358742 -40.583919 108.824546 -30.264469 -23.308477 -25.616182 0.000000 0.000000 0.000000 -7.125000 0.000000 0.000000 -54.970813 47.835979 5.453226 0.000000 0.000000 0.000000 -24.229894 -22.320420 73.551943 -142.290281 -46.652906 -103.245802 7.858185 2.147815 -20.325477 0.000000 0.000000 0.000000 7.125000 0.000000 0.000000 22.819436 10.594827 19.929429
-1.085318 17.827275 1.111243 -174.952840 68.153177 -160.219863 0.000000 0.000000 0.000000 -5.684775 -30.317393 -14.597276 0.444320 4.272034 11.844005 -0.436814 12.369018 -9.100495 1.684307 -8.167702 -23.228586 0.000000 0.000000 0.000000 22.263711 6.471912 -18.127402 -1.060356 -6.544479 18.373495 0.087190 -16.842167 -23.059831 -0.140482 2.410987 -6.643104 0.341661 4.264458 1.749842 0.441091 6.149179 -8.146179 -0.362569 3.144711 -9.601402 -3.733716 3.521976 -12.637396 9.928891 4.114659 14.624708 4.170793 2.696196 6.214043 0.000000 0.000000 0.000000 26.567087 -4.528916 -54.705347 150.267611 -40.662877 108.765184 -30.290355 -23.697911 -26.155288 0.000000 0.000000 0.000000 -7.125000 0.000000 0.000000 -55.457078 48.213222 6.242363 0.000000 0.000000 0.000000 -24.581455 -23.378172 73.492391 -142.127254 -46.757791 -103.127188 9.447842 2.864664 -19.691257 0.000000 0.000000 0.000000 7.125000 0.000000 0.000000 23.817496 11.179949 20.668472
-0.923369 17.842106 1.044990 -176.775088 67.632263 -164.162060 0.000000 0.000000 0.000000 -8.443773 -29.288214 -8.830720 0.206568 2.910945 8.031877 -0.515871 12.948548 -7.964188 1.982052 -8.828613 -25.260714 0.000000 0.000000 0.000000 21.964319 7.515444 -12.888031 -0.845995 -5.866225 16.396932 0.275524 -19.403911 -25.156476 -0.058025 1.547924 -4.257982 0.718135 4.094359 1.168105 0.392455 5.969041 -8.426129 -0.567088 3.041691 -9.522357 -3.460302 3.581345 -12.531380 9.727087 4.147095 15.438065 4.088796 2.729246 6.462449 0.000000 0.000000 0.000000 27.448015 -4.836859 -54.900319 149.965676 -40.922796 108.567929 -29.816296 -23.920048 -25.959460 0.000000 0.000000 0.000000 -7.125000 0.000000 0.000000 -54.971302 48.154406 6.034555 0.000000 0.000000 0.000000 -25.032882 -24.725088 74.164863 -141.877871 -46.917169 -102.945223 10.091908 2.260106 -19.512934 0.000000 0.000000 0.000000 7.125000 0.000000 0.000000 24.212630 11.338694 20.999846
-0.795150 17.841992 1.001736 -179.674658 67.276902 -168.313618 0.000000 0.000000 0.000000 -11.064779 -28.041538 -1.750923 0.000000 0.000000 0.000000 -0.643941 14.048337 -4.915777 1.972360 -8.808052 -25.196772 0.000000 0.000000 0.000000 21.076880 8.036356 -9.985391 -0.804508 -5.724460 15.987045 0.272923 -20.510924 -26.871891 -0.023041 0.978915 -2.690820 0.035594 3.943987 0.616798 0.324018 5.757306 -8.755412 -0.220073 3.004540 -9.624078 -3.218996 3.614999 -12.595187 9.513988 4.158767 16.151369 4.008929 2.749482 6.711498 0.000000 0.000000 0.000000 27.535564 -5.003467 -54.959573 149.946191 -40.939463 108.555108 -30.556689 -24.136835 -25.633709 0.000000 0.000000 0.000000 -7.125000 0.000000 0.000000 -55.177276 47.799589 5.424165 0.000000 0.000000 0.000000 -25.525372 -25.805476 74.730412 -141.381281 -47.229883 -102.581593 10.657620 1.236518 -20.042568 0.000000 0.000000 0.000000 7.125000 0.000000 0.000000 24.475241 10.840805 21.558816
-0.702686 17.821996 0.960372 -182.017778 67.023017 -171.036740 0.000000 0.000000 0.000000 -12.559478 -28.398786 -0.613541 0.000000 0.000000 0.000000 -0.618321 13.770742 -5.313812 2.030247 -8.928636 -25.572409 0.000000 0.000000 0.000000 20.161885 8.020715 -9.171021 -0.854265 -5.894298 16.478119 0.244055 -20.847090 -27.611927 -0.032168 1.158168 -3.184212 -0.600686 3.760679 -0.011552 0.421566 5.547375 -9.240558 0.271047 2.984285 -9.867002 -3.701338 3.622406 -12.521428 9.384650 4.268954 16.380352 4.060783 2.762496 6.753434 0.000000 0.000000 0.000000 26.886153 -4.504418 -55.219586 149.944691 -40.940739 108.554163 -30.510688 -22.743454 -25.177385 0.000000 0.000000 0.000000 -7.125000 0.000000 0.000000 -54.754842 47.481769 4.764572 0.000000 0.000000 0.000000 -26.044503 -26.465670 75.940136 -141.200618 -47.342229 -102.448904 10.616431 0.927203 -19.360710 0.000000 0.000000 0.000000 7.125000 0.000000 0.000000 24.534819 11.472018 21.268318
-0.638426 17.813949 0.909688 -179.887052 66.934748 -168.552215 0.000000 0.000000 0.000000 -11.520280 -28.529814 -0.988203 0.000000 0.000000 0.000000 -0.617665 13.763573 -5.260039 2.037211 -8.943164 -25.617616 0.000000 0.000000 0.000000 20.968093 8.223687 -9.167053 -0.803969 -5.722424 15.981089 0.355796 -21.258556 -27.352845 -0.033934 1.188653 -3.268081 0.588424 3.679214 -1.296397 0.912498 5.634288 -9.881014 0.196584 3.004496 -9.765852 -4.018367 3.782944 -12.604283 9.105963 4.583594 16.454908 4.052306 2.866767 6.766929 0.000000 0.000000 0.000000 25.916015 -3.453321 -55.294027 150.098651 -40.808716 108.654934 -30.785081 -22.363013 -25.686045 0.000000 0.000000 0.000000 -7.125000 0.000000 0.000000 -55.371522 47.798570 5.458343 0.000000 0.000000 0.000000 -26.414278 -26.964723 77.331479 -141.185685 -47.351529 -102.437878 10.731482 1.053882 -19.071176 0.000000 0.000000 0.000000 7.125000 0.000000 0.000000 24.637436 11.737696 21.227246
